# xmcd
#
# Track frame offsets: 
#        150
#        21090
#        53380
#        67574
#        95480
#        116644
#        125708
#        144719
#        167999
#        208761
#        225430
#
# Disc length: 3655 seconds
#
# Revision: 0
# Processed by: cddbd v1.5.2PL0 Copyright (c) Steve Scherf et al.
# Submitted via: ExactAudioCopy v0.95a5
#
DISCID=910e450b
DTITLE=Janis Joplin - Blow All My Blues Away [CD6]
DYEAR=1968
DGENRE=Rock
TTITLE0=(cuts in) Combination of the Two (Carousel Ballroom, San Franc
TTITLE0=isco, CA 23 JUN 1968)
TTITLE1=I Need A Man to Love (Carousel Ballroom, San Francisco, CA 23 
TTITLE1=JUN 1968)
TTITLE2=Flower In the Sun (Carousel Ballroom, San Francisco, CA 23 JUN
TTITLE2=1968)
TTITLE3=Light Is Faster Than Sound (Carousel Ballroom, San Francisco, 
TTITLE3=CA 23 JUN 1968)
TTITLE4=Summertime (Carousel Ballroom, San Francisco, CA 23 JUN 1968)
TTITLE5=Mr. Natural (cuts) (Carousel Ballroom, San Francisco, CA 23 JU
TTITLE5=N 1968)
TTITLE6=Bye, Bye Baby (Avalon Ballroom, San Francisco, CA 1968 (FM))
TTITLE7=Women Is Losers (Avalon Ballroom, San Francisco, CA 1968 (FM))
TTITLE8=All is Loneliness (Avalon Ballroom, San Francisco, CA 1968 (FM
TTITLE8=))
TTITLE9=Call On Me (Avalon Ballroom, San Francisco, CA 1968 (FM))
TTITLE10=Ball and Chain (Avalon Ballroom, San Francisco, CA 1968 (FM))
EXTD=
EXTT0=
EXTT1=
EXTT2=
EXTT3=
EXTT4=
EXTT5=
EXTT6=
EXTT7=
EXTT8=
EXTT9=
EXTT10=
PLAYORDER=
